<svg xmlns="http://www.w3.org/2000/svg">
  <defs>
    <symbol id="icon-twitter" viewBox="0 0 500 500">
      <title>Twitter logo</title>
      <path d="M500,95.5a214.6,214.6,0,0,1-59.9,16.3c21.8-12.3,38.1-32.7,46.3-57.2C466,65.5,442.8,75,419.6,79.1a103.1,103.1,0,0,0-178.4,70.8,77.7,77.7,0,0,0,4.1,24.5c-85.8-4.1-160.8-45-211.2-107.6-9.5,16.3-13.6,32.7-13.6,53.1,0,36.8,19.1,68.1,46.3,84.5-17.7,0-32.7-4.1-46.3-12.3v1.4c0,50.4,36.8,91.3,83.1,100.8A104.6,104.6,0,0,1,75,298.4c-6.8,0-12.3,0-19.1-1.4,12.3,40.9,50.4,70.8,96.7,70.8-34.1,28.6-80.4,45-128.1,45-8.2,0-16.3,0-24.5-1.4,40.9,27.2,94,42.2,152.6,42.2,190.7,0,294.3-156.7,294.3-292.9V147.1c20.4-13.5,40.8-31.2,53.1-51.6h0Z"/>
    </symbol>
    <symbol id="icon-arrow-up" viewBox="0 0 200 200">
      <title>arrow-up</title>
      <path d="M100,57.3a2,2,0,0,1,1.6.8l81.5,84.8a.1.1,0,0,0,0-.1.9.9,0,0,1,.8,0L104.3,60,100,55.5,95.7,60,16.1,142.8a.9.9,0,0,1,.8,0,.1.1,0,0,0,0,.1L98.4,58a1.9,1.9,0,0,1,1.6-.8h0Zm0-11.9a13.3,13.3,0,0,0-10.5,4.8L8.3,134.7a11.7,11.7,0,0,0,0,16.3,11.2,11.2,0,0,0,15.8.6l.6-.6,79.6-82.8H95.7L175.3,151a11.2,11.2,0,0,0,15.8.6l.6-.6a11.7,11.7,0,0,0,0-16.3L110.2,49.8a13.8,13.8,0,0,0-10.1-4.4H100Z"/>
    </symbol>
  </defs>
</svg>
