<svg xmlns="http://www.w3.org/2000/svg">
  <defs>
    <filter id="drop-shadow">
      <feGaussianBlur in="SourceGraphic" stdDeviation="10" result="shadow" />
      <feColorMatrix in="shadow" mode="matrix" values="0 0 0 0 0  0 0 0 0 0  0 0 0 0 0  0 0 0 1 0" result="shadow" />
      <feBlend in="SourceGraphic" in2="shadow" />
    </filter>
    <symbol id="icon-facebook" viewBox="0 0 500 500">
      <title>Share on Facebook</title>
      <path d="M376.7,178.3H285v-45S281.7,90,308.3,90h58.3V0h-100s-85,0-85,85v93.3H123.3v73.3h60V500H285V251.8h70l21.7-73.4h0Z"/>
    </symbol>
    <symbol id="icon-twitter" viewBox="0 0 500 500">
      <title>Share on Twitter</title>
      <path d="M500,95.5a214.6,214.6,0,0,1-59.9,16.3c21.8-12.3,38.1-32.7,46.3-57.2C466,65.5,442.8,75,419.6,79.1a103.1,103.1,0,0,0-178.4,70.8,77.7,77.7,0,0,0,4.1,24.5c-85.8-4.1-160.8-45-211.2-107.6-9.5,16.3-13.6,32.7-13.6,53.1,0,36.8,19.1,68.1,46.3,84.5-17.7,0-32.7-4.1-46.3-12.3v1.4c0,50.4,36.8,91.3,83.1,100.8A104.6,104.6,0,0,1,75,298.4c-6.8,0-12.3,0-19.1-1.4,12.3,40.9,50.4,70.8,96.7,70.8-34.1,28.6-80.4,45-128.1,45-8.2,0-16.3,0-24.5-1.4,40.9,27.2,94,42.2,152.6,42.2,190.7,0,294.3-156.7,294.3-292.9V147.1c20.4-13.5,40.8-31.2,53.1-51.6h0Z"/>
    </symbol>
    <svg id="icon-pinterest" viewBox="0 0 256 256">
      <title>Pinterest</title>
      <path d="M0,128.002 C0,180.416 31.518,225.444 76.619,245.241 C76.259,236.303 76.555,225.573 78.847,215.848 C81.308,205.457 95.317,146.1 95.317,146.1 C95.317,146.1 91.228,137.927 91.228,125.848 C91.228,106.879 102.222,92.712 115.914,92.712 C127.557,92.712 133.182,101.457 133.182,111.929 C133.182,123.633 125.717,141.14 121.878,157.355 C118.671,170.933 128.686,182.008 142.081,182.008 C166.333,182.008 182.667,150.859 182.667,113.953 C182.667,85.899 163.772,64.901 129.405,64.901 C90.577,64.901 66.388,93.857 66.388,126.201 C66.388,137.353 69.676,145.217 74.826,151.307 C77.194,154.104 77.523,155.229 76.666,158.441 C76.052,160.796 74.642,166.466 74.058,168.713 C73.206,171.955 70.579,173.114 67.649,171.917 C49.765,164.616 41.436,145.031 41.436,123.015 C41.436,86.654 72.102,43.054 132.918,43.054 C181.788,43.054 213.953,78.418 213.953,116.379 C213.953,166.592 186.037,204.105 144.887,204.105 C131.068,204.105 118.069,196.635 113.616,188.15 C113.616,188.15 106.185,217.642 104.611,223.337 C101.897,233.206 96.585,243.07 91.728,250.758 C103.24,254.156 115.401,256.007 128.005,256.007 C198.689,256.007 256.001,198.698 256.001,128.002 C256.001,57.309 198.689,0 128.005,0 C57.314,0 0,57.309 0,128.002 Z"></path>
    </svg>
    <symbol id="icon-comment" viewBox="0 0 500 500">
      <title>Comments</title>
      <path d="M489.6,438c-8.6-10.1-14.9-18.1-19.9-32.6c-10.5-39,1.8-83.6,1.8-83.6l-0.1,0.1c8-24.1,12.4-49.8,12.4-76.6
c0-133.6-108.3-241.9-241.9-241.9C108.3,3.5,0,111.8,0,245.4C0,348.8,64.9,437,156.2,471.6h-0.1c0,0,0.6,0.2,1.6,0.6
c12,4.4,24.4,7.9,37.1,10.5c49.4,11.1,144.7,23.8,277.4,1.6C505.2,478.6,505.8,457,489.6,438L489.6,438z M285.4,300h-89.9
c-8.8,0-15.9-7.1-15.9-15.9c0-8.8,7.1-15.9,15.9-15.9h89.9c8.8,0,15.9,7.1,15.9,15.9C301.4,292.9,294.3,300,285.4,300z M324,237
H195.5c-8.8,0-15.9-7.1-15.9-15.9s7.1-15.9,15.9-15.9H324c8.8,0,15.9,7.1,15.9,15.9C339.9,229.8,332.8,237,324,237z"/>
    </symbol>
    <symbol id="icon-whatsapp" viewBox="0 0 500 500">
      <title>Share with Whatsapp</title>
      <path d="M500,243.6c0,134.5-109.9,243.6-245.5,243.6a246.3,246.3,0,0,1-118.7-30.3L0,500,44.3,369.3A240.4,240.4,0,0,1,9.1,243.5C9.1,109,119,0,254.5,0S500,109,500,243.6ZM254.5,38.8c-113.8,0-206.4,91.9-206.4,204.8A202.9,202.9,0,0,0,87.4,363.7l-25.8,76,79.3-25.2a206.2,206.2,0,0,0,113.5,33.9c113.8,0,206.4-91.9,206.4-204.8S368.3,38.8,254.5,38.8Zm124,260.9c-1.5-2.5-5.5-4-11.5-7s-35.6-17.4-41.1-19.4-9.5-3-13.5,3-15.5,19.4-19.1,23.4-7,4.5-13,1.5-25.4-9.3-48.4-29.6c-17.9-15.8-30-35.4-33.5-41.3S198,221,201,218s6-7,9-10.5,4-6,6-10,1-7.5-.5-10.5S202,154.8,197,142.8s-10-10-13.5-10-7.5-.5-11.5-0.5a22.1,22.1,0,0,0-16,7.5c-5.5,6-21,20.4-21,49.8s21.5,57.8,24.6,61.7,41.6,66.2,102.8,90.1,61.2,15.9,72.2,14.9,35.6-14.4,40.6-28.4,4.8-25.8,3.3-28.2h0Z"/>
    </symbol>
    <symbol id="icon-arrow-right" viewBox="0 0 500 500">
      <title>Arrow pointing right</title>
      <path d="M402.9,275.8H0v-52.3h402.1L246.3,67.6l37-37L500,247.3l-2.7,2.7l2.7,2.7L283.3,469.4l-37-37L402.9,275.8z M425.6,253v-6 l3,3L425.6,253z"/>
    </symbol>
    <symbol id="icon-arrow-left" viewBox="0 0 500 500">
      <title>Arrow pointing left</title>
      <path d="M97.1 224.2H500v52.3H97.9l155.8 155.9-37 37L0 252.7l2.7-2.7-2.7-2.7L216.7 30.6l37 37L97.1 224.2zM74.4 247v6l-3-3 3-3z"/>
    </symbol>
    <symbol id="icon-tick" viewBox="0 0 29 22">
      <title>Tick mark</title>
      <path d="M28.3340042,2.62788644 L26.0430262,0.336908517 C25.818422,0.112299964 25.5601291,0 25.2681388,0 C24.9761485,0 24.7178556,0.112299964 24.4932514,0.336908517 L10.7136909,14.1164647 L4.14397476,7.51305778 C3.91936794,7.31091267 3.66107414,7.20984227 3.36908517,7.20984227 C3.07709621,7.20984227 2.81880241,7.31091267 2.59419558,7.51305778 L0.303217666,9.8040357 C0.101071563,10.0286443 0,10.2869372 0,10.5789274 C0,10.8709177 0.101071563,11.1292106 0.303217666,11.3538192 L9.93880342,21.0230915 C10.1409485,21.2476983 10.3936267,21.36 10.6968465,21.36 C11.0000663,21.36 11.2527445,21.2476983 11.4548896,21.0230915 L28.3340042,4.17766562 C28.5361536,3.95305706 28.637224,3.68914934 28.637224,3.38592952 C28.637224,3.0827097 28.5361536,2.83003155 28.3340042,2.62788644 L28.3340042,2.62788644 Z"></path>
    </symbol>
    <symbol id="icon-cross" viewBox="0 0 25 24">
      <title>Cross mark</title>
      <path d="M24.318612,19.3131322 C24.318612,19.8518541 24.1300628,20.3097622 23.7529554,20.6868682 L21.0054843,23.4343434 C20.6283769,23.8114497 20.1704665,24 19.6317442,24 C19.0930219,24 18.6351116,23.8114497 18.2580087,23.4343434 L12.3186143,17.494949 L6.37921983,23.4343434 C6.00211241,23.8114497 5.54420659,24 5.00547976,24 C4.46675791,24 4.00884983,23.8114497 3.63174376,23.4343434 L0.884268599,20.6868682 C0.507162306,20.3097622 0.318611987,19.8518541 0.318611987,19.3131322 C0.318611987,18.7744099 0.507162306,18.3164996 0.884268599,17.9393922 L6.82366302,11.9999977 L0.884268599,6.06060332 C0.507162306,5.68350042 0.318611987,5.22559008 0.318611987,4.68686777 C0.318611987,4.14814547 0.507162306,3.69023513 0.884268599,3.3131277 L3.63174376,0.565656611 C4.00884983,0.188549187 4.46675791,0 5.00547976,0 C5.54420659,0 6.00211241,0.188549187 6.37921983,0.565656611 L12.3186143,6.50505103 L18.2580087,0.565656611 C18.6351116,0.188549187 19.0930219,0 19.6317442,0 C20.1704665,0 20.6283769,0.188549187 21.0054843,0.565656611 L23.7529554,3.3131277 C24.1300628,3.69023513 24.318612,4.14814547 24.318612,4.68686777 C24.318612,5.22559008 24.1300628,5.68350042 23.7529554,6.06060332 L17.813561,11.9999977 L23.7529554,17.9393922 C24.1300628,18.3164996 24.318612,18.7744099 24.318612,19.3131322 L24.318612,19.3131322 Z"></path>
    </symbol>
    <symbol id="icon-add" viewBox="0 0 500 500">
      <title>Add</title>
      <polygon points="500 195.5 304.5 195.5 304.5 0 195.5 0 195.5 195.5 0 195.5 0 304.5 195.5 304.5 195.5 500 304.5 500 304.5 304.5 500 304.5 500 195.5"/>
    </symbol>
    <symbol id="icon-draft" viewBox="0 0 500 500">
      <title>Drafts</title>
      <path d="M55.8 169.7c-5 2.9-9.1 9.9-9.1 15.7v.2c0 5.8 4.1 12.8 9.1 15.6l185 105.3c5 2.8 13.1 2.8 18.1 0l185.3-105.3c5-2.8 9.1-9.8 9.1-15.6v-.9c0-5.8-4.1-12.7-9.1-15.6L259.2 64c-5-2.8-13.1-2.8-18.1 0zm-9.1 87.1a9.8 9.8 0 0 0 4.5 7.8l194 109.9a10.1 10.1 0 0 0 9.1 0L448.7 264a9.9 9.9 0 0 0 4.5-7.8v-11.3c0-2.9-2-4.1-4.5-2.6L254.3 352.6a10.2 10.2 0 0 1-9.1 0L51.3 243c-2.5-1.4-4.5-.3-4.5 2.7v11.1zm0 62.6a9.8 9.8 0 0 0 4.5 7.8L245.3 437a10.1 10.1 0 0 0 9.1 0l194.3-110.4a9.9 9.9 0 0 0 4.5-7.8v-11.3c0-2.9-2-4.1-4.5-2.6L254.3 415.2a10.2 10.2 0 0 1-9.1 0L51.3 305.6c-2.5-1.4-4.5-.3-4.5 2.7v11.1z"/>
    </symbol>
    <symbol id="icon-post" viewBox="0 0 500 500">
      <title>Post</title>
      <path d="M334.9 0L3.9 154.3 165.1 500l331-154.3zm-85.3 332.8h-30.4v-68.6h-56.9v68.6h-30.5v-159h30.5v62.3h56.9v-62.3h30.4v159zm51.2 0h-30V211.2h30v121.6zm-15-128.2c-10.6 0-19.1-8.2-19.1-18.3s8.6-18.3 19.1-18.3 19.1 8.2 19.1 18.3-8.5 18.3-19.1 18.3zm68.4 142.8v9.7h-35.5v-9.7h12.7V155.1h-12.7v-9.7h35.6v9.7h-12.8v192.3h12.7z"/>
    </symbol>
    <symbol id="icon-list" viewBox="0 0 500 500">
      <title>Open list</title>
      <path d="M250 37.7L26.7 199.9 112 462.3h276l85.3-262.5zm-92.9 165.5c5.5-.2 11.3-.8 11.3-6.6v-.7h8.3v41.4h-9.8v-27.1h-9.7v-7zm-1.1 84.7c11.1-10 17.3-15.1 17.3-20.3 0-3.1-1.9-4.8-5.5-4.8s-5.9 1.6-8.5 3.5l-3.1-7.7a21.6 21.6 0 0 1 13.3-4.4c8.5 0 14.1 5 14.1 12.7s-6.5 13.7-12.5 18.7h13.2v8.8h-28.2V288zm12.8 67.1a23.7 23.7 0 0 1-12.1-3l2.2-8.2a19.3 19.3 0 0 0 9.3 2.7c3.8 0 6.2-1.6 6.2-4.3s-3.7-4.8-6.9-4.8h-4.4v-7.8h4.2c2.2 0 6-.8 6-3.7s-1.8-3.2-4.9-3.2a16.2 16.2 0 0 0-8.3 2.7l-2.2-7.9a24.3 24.3 0 0 1 12.6-3.3c9.2 0 13.3 5.1 13.3 10.2a9.4 9.4 0 0 1-5.6 8.8 10 10 0 0 1 6.9 9.5c0 7.4-6.5 12.3-16.3 12.3zm178.4-10.6H209v-19.5h138.2v19.5zm0-58.5H209v-19.5h138.2v19.5zm0-58.5H209v-19.6h138.2v19.5z"/>
    </symbol>
    <symbol id="icon-quiz" viewBox="0 0 500 500">
      <title>Quiz</title>
      <path d="M444.6 55.7H49.3v388.6h401.4V176.7L256 371.4l-3.9-3.9-3.1 3.1L96.7 218.3l63.6-63.6 92.7 92.5z"/>
    </symbol>
    <symbol id="icon-review" viewBox="0 0 500 500">
      <title>Review</title>
      <path d="M250,55.7c-107.3,0-194.3,87-194.3,194.3s87,194.3,194.3,194.3,194.3-87,194.3-194.3S357.3,55.7,250,55.7Zm0,343.7A149.4,149.4,0,1,1,399.3,250,149.3,149.3,0,0,1,250,399.4Zm0-281.8A132.4,132.4,0,1,0,382.3,250,132.4,132.4,0,0,0,250,117.6Zm42.4,190.8L250,286.1l-42.4,22.3,8.1-47.2-34.3-33.5,47.4-6.9,21.2-43,21.2,43,47.4,6.9-34.3,33.5Z"/>
    </symbol>
    <symbol id="icon-social" viewBox="0 0 500 500">
      <title>social</title>
      <path d="M402.5,250.7q12,6.7,13.7,20.7a27.7,27.7,0,0,1-8.3,24L199.2,492.7q-7.3,7.3-18.7,7.3-14.7,0-23-12.7t-3-26l60-144-117.3-68q-11.3-6.7-13.3-20.7a26.9,26.9,0,0,1,8-24L300.5,7.3Q309.2,0,319.2,0a26.9,26.9,0,0,1,19.7,8.3A26.9,26.9,0,0,1,347.2,28a26.5,26.5,0,0,1-2.7,12L285.2,182.7Z"/>
    </symbol>
    <symbol id="icon-location" viewBox="0 0 500 500">
      <title>location</title>
      <path d="M187.2,157.8a59.8,59.8,0,0,1,18.4-44.1,63.1,63.1,0,0,1,88.7,0,59.8,59.8,0,0,1,18.4,44.1q0,25.5-18.4,43.9T250,220.2q-25.9,0-44.4-18.4t-18.4-43.9h0ZM87,208.1A422.2,422.2,0,0,0,104.5,251q9.7,20.5,17.5,34.7l7.8,14.3L250,500,363,300l9.1-14.6q9.1-14.6,19.8-35.1t19.8-42.5q9.1-22.1,9.1-37.7a164.5,164.5,0,0,0-13.3-65.9,168.9,168.9,0,0,0-36.7-53.9,179.2,179.2,0,0,0-54.5-36.7,167.7,167.7,0,0,0-132.5,0,179.2,179.2,0,0,0-54.5,36.7,168.9,168.9,0,0,0-36.7,53.9,164.5,164.5,0,0,0-13.3,65.9Q79.2,185.7,87,208.1Z"/>
    </symbol>
    <symbol id="icon-search" viewBox="0 0 500 500">
      <title>Search</title>
      <path d="M346.2,211.5q0-55.6-39.5-95.1T211.5,76.9q-55.6,0-95.1,39.5T76.9,211.5q0,55.6,39.5,95.1t95.1,39.5q55.6,0,95.1-39.5t39.5-95.1h0ZM500,461.5q0,15.6-11.4,27t-27,11.4q-16.2,0-27-11.4L331.4,385.8q-53.8,37.3-119.9,37.3a207.9,207.9,0,0,1-82.2-16.7q-39.2-16.7-67.6-45.1T16.7,293.7a210.8,210.8,0,0,1,0-164.4Q33.4,90.1,61.7,61.7t67.6-45.1a210.8,210.8,0,0,1,164.4,0q39.2,16.7,67.6,45.1t45.1,67.6a207.9,207.9,0,0,1,16.7,82.2q0,66.1-37.3,119.9L488.9,434.5a36.8,36.8,0,0,1,11.1,27h0Z" />
    </symbol>
    <symbol id="icon-youtube" viewBox="0 0 500 500">
      <title>Youtube logo</title>
      <path d="M500,150.6c0-40.9-33.4-74.1-74.7-74.1H74.7C33.5,76.5,0,109.7,0,150.6V349.4c0,40.9,33.5,74.1,74.7,74.1H425.3c41.3,0,74.7-33.2,74.7-74.1V150.6h0ZM200,333.8V147.2l142.8,93.3L200,333.8h0Z"/>
    </symbol>
    <symbol id="icon-instagram" viewBox="0 0 500 500">
      <title>Instagram logo</title>
      <path d="M403.4,0H96.6A96.7,96.7,0,0,0,0,96.6V403.4A96.7,96.7,0,0,0,96.6,500H403.4A96.7,96.7,0,0,0,500,403.4V96.6A96.7,96.7,0,0,0,403.4,0h0Zm27.7,57.6h11.1v84.7l-84.5.3-0.3-84.7,73.7-.2h0ZM178.6,198.7A87.8,87.8,0,1,1,162,250a88,88,0,0,1,16.7-51.3h0ZM451.3,403.4a47.9,47.9,0,0,1-47.9,47.9H96.6a48,48,0,0,1-47.9-47.9V198.7h74.6A136,136,0,0,0,113.3,250c0,75.4,61.3,136.7,136.7,136.7S386.7,325.4,386.7,250a136,136,0,0,0-10.1-51.3h74.7V403.4h0Z"/>
    </symbol>
    <symbol id="icon-card-video" viewBox="0 0 60 60">
      <title>Video post</title>
      <path d="M30 0c8.333 0 15.417 2.917 21.25 8.75S60 21.667 60 30s-2.917 15.417-8.75 21.25S38.333 60 30 60s-15.417-2.917-21.25-8.75S0 38.333 0 30 2.917 14.583 8.75 8.75 21.667 0 30 0zm0 57.013c7.407 0 13.76-2.65 19.062-7.95 5.3-5.302 7.95-11.656 7.95-19.064 0-7.41-2.65-13.764-7.95-19.065-5.3-5.3-11.655-7.95-19.063-7.95-7.41 0-13.764 2.65-19.065 7.95-5.3 5.3-7.95 11.656-7.95 19.064 0 7.407 2.65 13.76 7.95 19.062 5.3 5.3 11.656 7.95 19.064 7.95zM43.124 29.22c.208.103.313.363.313.78 0 .417-.105.677-.313.78l-18.75 10.782h-.47c-.52 0-.78-.208-.78-.624V19.22c0-.626.26-.94.78-.94.105 0 .262.053.47.157l18.75 10.782z" fill-rule="evenodd"/>
    </symbol>
    <symbol id="icon-thin-cross" viewBox="0 0 500 500">
      <title>cross</title>
      <path d="M257.1,250L430.3,76.8a5,5,0,0,0-7.1-7.1L250,242.9,76.8,69.7a5,5,0,0,0-7.1,7.1L242.9,250,69.7,423.2a5,5,0,1,0,7.1,7.1L250,257.1,423.2,430.3a5,5,0,0,0,7.1-7.1Z"/>
    </symbol>
    <symbol id="icon-media" viewBox="0 0 200 200">
      <title>media</title>
      <path d="M100,194.5A94.5,94.5,0,1,1,194.5,100,94.6,94.6,0,0,1,100,194.5Zm0-180A85.5,85.5,0,1,0,185.5,100,85.6,85.6,0,0,0,100,14.5Z"/>
      <path d="M27.3,149 C28.2,150.4 30.6,152.9 30.6,152.9 L61.3,135 L84.3,149 L148.5,110.6 L172.2,125 C172.2,125 173.5,121.6 174,119.7 C174.4,118.2 174.7,114.8 174.7,114.8 L148.5,98.7 L84.4,137.2 L61.3,123.1 L25.3,145 C25.4,145.1 26.5,147.8 27.3,149 L27.3,149 Z"></path>
      <path d="M51,47.1 L98.2,75.4 L51,103.7 L51,47.1 L51,47.1 Z M60,88.8 L82.2,75.5 L60.1,62.2 L60,88.8 L60,88.8 Z"></path>
    </symbol>
    <symbol id="icon-chat" viewBox="0 0 40 40">
      <path d="M30.0599467,27.7297067 C29.39008,25.2362667 30.17344,22.3797333 30.17344,22.3797333 C30.6833067,20.8433067 30.9649067,19.1963733 30.9649067,17.4833067 C30.9649067,8.93162667 24.0315733,2 15.4816,2 C6.93333333,2 0,8.93162667 0,17.4833067 C0,24.1013333 4.15317333,29.7448533 9.99509333,31.9613867 C9.99168,31.9613867 10.0283733,31.97632 10.0949333,32.0014933 C10.8599467,32.2848 11.6548267,32.5096533 12.4714667,32.67136 C15.6352,33.3847467 21.7335467,34.1949867 30.22336,32.7716267 C32.3332267,32.4098133 32.3733333,31.0282667 31.3365333,29.81312 C30.78656,29.1697067 30.38336,28.6530133 30.0599467,27.7297067 Z"></path>
    </symbol>
    <symbol id="icon-settings" viewBox="0 0 32 32">
      <path d="M6.55130503,2.87978905 L9.59367121,5.92215523 C10.6311314,5.28117219 11.750156,4.82446895 12.9038462,4.55204553 L12.9038462,0.228476933 C13.7723517,0.0782776836 14.665496,0 15.5769231,0 C16.4346231,0 17.2761324,0.0693210274 18.0961538,0.202666052 L18.0961538,4.55204553 C19.249844,4.82446895 20.3688686,5.28117219 21.4063288,5.92215523 L24.5124044,2.8160796 C25.2556567,3.33748885 25.9512748,3.92218329 26.5914334,4.56233755 L26.591469,4.56237315 C27.1797726,5.15067656 27.7212372,5.78581901 28.2097891,6.46172684 L25.0778448,9.59367121 C25.7188278,10.6311314 26.175531,11.750156 26.4479545,12.9038462 L30.9253692,12.9038462 C30.9889254,13.2713508 31.0396039,13.6432671 31.0769231,14.0191135 L31.0769231,17.1347326 C31.0448028,17.4582201 31.0027862,17.7787962 30.9511801,18.0961538 L26.4479545,18.0961538 C26.175531,19.249844 25.7188278,20.3688686 25.0778448,21.4063288 L28.2740571,24.6025411 C28.1268739,24.8092242 27.9747703,25.0121604 27.8179172,25.2111786 L25.2111786,27.8179172 C25.0121604,27.9747703 24.8092242,28.1268739 24.6025411,28.2740571 L21.4063288,25.0778448 C20.3688686,25.7188278 19.249844,26.175531 18.0961538,26.4479545 L18.0961538,30.9511801 C17.7787962,31.0027862 17.4582201,31.0448028 17.1347326,31.0769231 L14.0191135,31.0769231 C13.6432671,31.0396039 13.2713508,30.9889254 12.9038462,30.9253692 L12.9038462,26.4479545 C11.750156,26.175531 10.6311314,25.7188278 9.59367121,25.0778448 L6.46172684,28.2097891 C5.78581889,27.7212371 5.15067633,27.1797725 4.56237284,26.5914687 L4.56233755,26.5914334 C3.92218329,25.9512748 3.33748885,25.2556567 2.8160796,24.5124044 L5.92215523,21.4063288 C5.28117219,20.3688686 4.82446895,19.249844 4.55204553,18.0961538 L0.202666052,18.0961538 C0.0693210274,17.2761324 -1.39976919e-12,16.4346231 -1.39976919e-12,15.5769231 C-1.39976919e-12,14.665496 0.0782776836,13.7723517 0.228476933,12.9038462 L4.55204553,12.9038462 C4.82446895,11.750156 5.28117219,10.6311314 5.92215523,9.59367121 L2.87978905,6.55130503 C3.89018206,5.13245362 5.13245362,3.89018206 6.55130503,2.87978905 Z M15.5,20.5 C18.2614237,20.5 20.5,18.2614237 20.5,15.5 C20.5,12.7385763 18.2614237,10.5 15.5,10.5 C12.7385763,10.5 10.5,12.7385763 10.5,15.5 C10.5,18.2614237 12.7385763,20.5 15.5,20.5 Z" id="settings"></path>
    </symbol>
    <symbol id="icon-pin" viewBox="0 0 32 32">
      <path d="M4,2 L8,2 L8,5.55111512e-16 L4.29980469,-1.2460334e-16 L3.14638672,-3.36482783e-16 L2.57319336,-4.41776695e-16 L2,0 L2,6 L4,6 L4,2.29980469 L4,2 Z M6,5.70019531 L6,2 L8,2 L8,8 L6,8 L6,6.85361328 L6,5.70019531 Z M0,10 L10,10 L10,8 L0,8 L0,10 Z M4,10 L4,16 L6,16 L6,10 L4,10 Z"></path>
    </symbol>
    <symbol id="icon-arrow-down" viewBox="0 0 200 200">
      <title>arrow-down</title>
      <path d="M100,142.7a2,2,0,0,1-1.6-.8L16.9,57.1a0.1,0.1,0,0,0,0,.1,0.9,0.9,0,0,1-.8,0L95.7,140l4.3,4.5,4.3-4.5,79.6-82.8a0.9,0.9,0,0,1-.8,0,0.1,0.1,0,0,0,0-.1L101.6,142a1.9,1.9,0,0,1-1.6.8h0Zm0,11.9a13.3,13.3,0,0,0,10.5-4.8l81.2-84.5a11.7,11.7,0,0,0,0-16.3,11.2,11.2,0,0,0-15.8-.6l-0.6.6L95.7,131.8h8.6L24.7,49a11.2,11.2,0,0,0-15.8-.6L8.3,49a11.7,11.7,0,0,0,0,16.3l81.5,84.9a13.8,13.8,0,0,0,10.1,4.4H100Z"/>
    </symbol>
    <symbol id="icon-arrow-up" viewBox="0 0 200 200">
      <title>arrow-up</title>
      <path d="M100,57.3a2,2,0,0,1,1.6.8l81.5,84.8a.1.1,0,0,0,0-.1.9.9,0,0,1,.8,0L104.3,60,100,55.5,95.7,60,16.1,142.8a.9.9,0,0,1,.8,0,.1.1,0,0,0,0,.1L98.4,58a1.9,1.9,0,0,1,1.6-.8h0Zm0-11.9a13.3,13.3,0,0,0-10.5,4.8L8.3,134.7a11.7,11.7,0,0,0,0,16.3,11.2,11.2,0,0,0,15.8.6l.6-.6,79.6-82.8H95.7L175.3,151a11.2,11.2,0,0,0,15.8.6l.6-.6a11.7,11.7,0,0,0,0-16.3L110.2,49.8a13.8,13.8,0,0,0-10.1-4.4H100Z"/>
    </symbol>
    <symbol id="icon-chat" viewBox="0 0 200 200">
      <title>chat</title>
      <path fill="#fff" filter="#drop-shadow" d="M183.5,159.1c-4-14.8.7-31.8,0.7-31.8A91.9,91.9,0,1,0,64.3,184.2l0.6,0.2a92.2,92.2,0,0,0,14.1,4c18.8,4.2,55,9,105.4.6,12.5-2.1,12.8-10.4,6.6-17.6C187.8,167.6,185.4,164.6,183.5,159.1Z"/>
    </symbol>
    <symbol id="icon-settings" viewBox="0 0 200 200">
      <title>settings</title>
      <path d="M45.1,22.7L63.7,41.3a68.4,68.4,0,0,1,20.2-8.4V6.5a96.3,96.3,0,0,1,31.7-.2V32.9a68.4,68.4,0,0,1,20.2,8.4l19-19A95.7,95.7,0,0,1,167.5,33h0a95.7,95.7,0,0,1,9.9,11.6L158.3,63.8A68.4,68.4,0,0,1,166.7,84h27.4q0.6,3.4.9,6.8v19q-0.3,3-.8,5.9H166.7a68.4,68.4,0,0,1-8.4,20.2l19.5,19.5-2.8,3.7L159.1,175l-3.7,2.8-19.5-19.5a68.4,68.4,0,0,1-20.2,8.4v27.5l-5.9.8h-19l-6.8-.9V166.8a68.4,68.4,0,0,1-20.2-8.4L44.5,177.6a95.7,95.7,0,0,1-11.6-9.9h0A95.7,95.7,0,0,1,22.2,155l19-19a68.4,68.4,0,0,1-8.4-20.2H6.2a96.3,96.3,0,0,1,.2-31.7H32.8a68.4,68.4,0,0,1,8.4-20.2L22.6,45.2A95.8,95.8,0,0,1,45.1,22.7ZM99.8,130.4A30.6,30.6,0,1,0,69.2,99.8h0A30.6,30.6,0,0,0,99.8,130.4Z"/>
    </symbol>
    <symbol id="icon-star" viewBox="0 0 200 200">
      <title>star</title>
      <path d="M195,78.7l-65.6-9.5L100,9.6,70.6,69.1,5,78.7,52.5,125,41.3,190.4,100,159.5l58.7,30.9L147.5,125Zm-95,54.2-32.5,17,6.2-36.1L47.5,88.2l36.3-5.3L100,50.1,116.2,83l36.3,5.3-26.3,25.6,6.2,36.1Z"/>
    </symbol>
    <symbol id="icon-help" viewBox="0 0 26 25">
      <title>help</title>
      <path d="M25,12.5070661 C25,5.59960425 19.4035594,0 12.5,0 C5.59644063,0 0,5.59960425 0,12.5070661 C0,19.414528 5.59644063,25.0141323 12.5,25.0141323 C19.4035594,25.0141323 25,19.414528 25,12.5070661 Z M1.25,12.5070661 C1.25,6.29035044 6.28679656,1.25070661 12.5,1.25070661 C18.7132034,1.25070661 23.75,6.29035044 23.75,12.5070661 C23.75,18.7237818 18.7132034,23.7634257 12.5,23.7634257 C6.28679656,23.7634257 1.25,18.7237818 1.25,12.5070661 Z M11.2963867,14.6957729 L11.2963867,14.2895229 C11.2963867,13.8240258 11.3810213,13.4368226 11.550293,13.1279018 C11.7195646,12.818981 12.0157856,12.4994855 12.4389648,12.1694057 C12.9425481,11.7716173 13.2673333,11.4627011 13.4133301,11.2426479 C13.5593269,11.0225947 13.6323242,10.7602276 13.6323242,10.4555385 C13.6323242,10.100068 13.5138358,9.82712151 13.2768555,9.63669087 C13.0398751,9.44626023 12.699221,9.35104634 12.2548828,9.35104634 C11.8528626,9.35104634 11.4804705,9.40817468 11.1376953,9.52243306 C10.7949202,9.63669144 10.4606136,9.77422262 10.1347656,9.93503072 L9.6015625,8.81784322 C10.4606163,8.33965072 11.3810172,8.10055806 12.362793,8.10055806 C13.1922242,8.10055806 13.850258,8.30368103 14.3369141,8.70993306 C14.8235701,9.11618509 15.0668945,9.67688912 15.0668945,10.392062 C15.0668945,10.7094464 15.0203455,10.9919142 14.9272461,11.2394741 C14.8341467,11.4870339 14.6934417,11.7229528 14.505127,11.9472377 C14.3168122,12.1715227 13.992027,12.463512 13.5307617,12.8232143 C13.1372051,13.1321351 12.87378,13.3881547 12.7404785,13.5912807 C12.6071771,13.7944067 12.5405273,14.0673532 12.5405273,14.4101284 L12.5405273,14.6957729 L11.2963867,14.6957729 Z M11.0361328,16.7206752 C11.0361328,16.0816747 11.3471649,15.7621792 11.9692383,15.7621792 C12.2739273,15.7621792 12.5066724,15.8457558 12.6674805,16.0129116 C12.8282886,16.1800674 12.9086914,16.4159862 12.9086914,16.7206752 C12.9086914,17.0211325 12.8272306,17.2591672 12.6643066,17.4347866 C12.5013826,17.6104059 12.2696955,17.6982143 11.9692383,17.6982143 C11.668781,17.6982143 11.4381518,17.6125218 11.2773437,17.4411342 C11.1165357,17.2697467 11.0361328,17.0295961 11.0361328,16.7206752 Z" id="Oval-1"></path>
    </symbol>
  </defs>
</svg>
