<svg viewBox="0 0 160 90" xmlns="http://www.w3.org/2000/svg"><rect fill="#4c4c4c" height="22" rx="4" width="74" x="43" y="34"/><path d="m77.86 48.21v-2.85a.36.36 0 1 1 .71 0v2.85a.36.36 0 1 1 -.71 0zm2.14.36a.36.36 0 0 0 .36-.36v-2.85a.36.36 0 0 0 -.72 0v2.85a.36.36 0 0 0 .36.36zm1.79 0a.36.36 0 0 0 .35-.36v-2.85a.36.36 0 1 0 -.71 0v2.85a.36.36 0 0 0 .36.36zm.71.72h-5a.36.36 0 0 1 -.36-.36v-4.29a.35.35 0 0 0 -.35-.35.36.36 0 0 0 -.36.35v4.44a.92.92 0 0 0 .92.92h5.3a.92.92 0 0 0 .92-.92v-4.44a.36.36 0 0 0 -.36-.35.35.35 0 0 0 -.35.35v4.29a.36.36 0 0 1 -.36.36zm1.79-5.72h-8.58a.36.36 0 0 1 -.35-.36v-1.42a.36.36 0 0 1 .35-.36h2.5v-1.07a.36.36 0 0 1 .36-.36h2.86a.36.36 0 0 1 .36.36v1.07h2.5a.36.36 0 0 1 .35.36v1.42a.36.36 0 0 1 -.35.36zm-5.36-2.14h2.14v-.72h-2.14zm5 .71h-7.86v.72h7.86z" fill="#fff"/></svg>