<svg xmlns="http://www.w3.org/2000/svg" width="120" height="31" viewBox="0 0 459.6 120"><path fill="#cfd0e9" d="M12.5,63.1a3,3,0,1,1,3-2.9,2.9,2.9,0,0,1-.9,2.1A3.2,3.2,0,0,1,12.5,63.1Zm14.8.1H21.4a3,3,0,1,1,0-6h5.9a3,3,0,0,1,0,6Zm179.4,7.3H181.9l-7.7-14.9H134.7a3,3,0,0,1-3-3,2.9,2.9,0,0,1,3-3h43.1l7.6,15h27.2ZM88.4,63.2H43.2a3,3,0,0,1-3-3,2.9,2.9,0,0,1,3-3H88.3a3,3,0,0,1,.1,6Z"/><path fill="#cfd0e9" d="M36.9,104.1a3,3,0,0,1-4.2,4.2,3,3,0,0,1-.4-3.8,2.9,2.9,0,0,1,4.1-.8ZM34.8,10.9a3,3,0,1,0,.7.1ZM44,103.1a3,3,0,1,0,3,3A3.1,3.1,0,0,0,44,103.1Zm0-92.2a3,3,0,1,0,.7.1Zm8.5,41.9a3.1,3.1,0,0,1,1.4-2.5A190.9,190.9,0,0,1,84.3,36.1L75.7,19.4a5.6,5.6,0,0,0-5-3H59.3a3,3,0,1,1,0-6H70.9a11.6,11.6,0,0,1,10.3,6.3L91.4,36.4a3.2,3.2,0,0,1-1.6,4.2h-.3A191.2,191.2,0,0,0,61.6,52.8Zm166.7,5.8c-.1-.3-3.9-8.6-14-16.7s-25.8-16.3-52.5-16.3c-19,0-35.1,1.8-51.9,6a3.3,3.3,0,0,0-1.5,1.1,3,3,0,0,0-.4,3.3l17.2,34.1h38.8a3,3,0,0,0,3-3,2.9,2.9,0,0,0-3-3H119.8L105.9,36.4a206.4,206.4,0,0,1,46.9-4.9c24.7,0,40,8,48.4,14.8a50.1,50.1,0,0,1,12.1,13.5c-2.2,5.1-14.7,27.5-59.2,27.5A224.6,224.6,0,0,1,62.5,67.6h-10A3,3,0,0,0,54,70c.9.5,12,6.7,30.6,12.5l-9,17.4a5.6,5.6,0,0,1-5,3H59.1a3,3,0,0,0,0,6H70.7A11.6,11.6,0,0,0,81,102.6l9.6-18.5a236.9,236.9,0,0,0,45.7,8.2,17.8,17.8,0,0,0,35.4-.6c12.1-1.8,25.2-5.9,35.5-14.6s12.2-16.2,12.3-16.5a2.8,2.8,0,0,0-.3-2Zm-65.4,43.6a11.9,11.9,0,0,1-11.6-9.4c3.8.2,7.8.3,11.8.3a108.7,108.7,0,0,0,11.4-.5,11.8,11.8,0,0,1-11.6,9.6Z"/><path fill="#cfd0e9" d="M254.1,46.9h-.3a10.6,10.6,0,0,0-5.2,1.3c-.3.1-.3.1-.3-.2V40.7a3.1,3.1,0,0,0-3-3h-3V66.9h0a11.5,11.5,0,0,0,11.5,11.5h.3a11.5,11.5,0,0,0,11.4-11.5V58.5h0a11.4,11.4,0,0,0-11.4-11.6ZM258,70.8a4.8,4.8,0,0,1-3.9,1.6h-.3a5.5,5.5,0,0,1-3.9-1.6,4.8,4.8,0,0,1-1.6-3.9V58.4a5.5,5.5,0,0,1,1.6-3.9,4.8,4.8,0,0,1,3.9-1.6h.2a5.5,5.5,0,0,1,3.9,1.6,4.8,4.8,0,0,1,1.6,3.9v8.5h.1a4.8,4.8,0,0,1-1.6,3.9Zm22.6-29.6a3.6,3.6,0,1,1-3.6-3.6,3.6,3.6,0,0,1,2.6,1.1A2.9,2.9,0,0,1,280.6,41.2ZM280,75.5a3,3,0,1,1-6,0V49.9a3,3,0,0,1,6,0V75.5Zm24.3-2.2a2.9,2.9,0,0,0-2.1-.9h-1.6a5.5,5.5,0,0,1-3.9-1.6,4.8,4.8,0,0,1-1.6-3.9V53.2c0-.2.1-.4.3-.4h6.9a3,3,0,1,0,.8-6h-7.6c-.2,0-.4-.1-.4-.2h0V40.6a3,3,0,0,0-6,0V67a11.5,11.5,0,0,0,11.4,11.5h1.6a2.7,2.7,0,0,0,2.1-.9,2.9,2.9,0,0,0,.9-2.1,3.5,3.5,0,0,0-.8-2.2Z"/><path fill="#cfd0e9" d="M333.2,72.5a11.6,11.6,0,0,1-10.1,6.1h-.3a11.1,11.1,0,0,1-8.2-3.4,11.3,11.3,0,0,1-3.4-8.1V58.3a11.5,11.5,0,0,1,11.5-11.5h.3a11.8,11.8,0,0,1,5.8,1.6,10.9,10.9,0,0,1,4.2,4.3,2.3,2.3,0,0,1,.4,1.4,2.7,2.7,0,0,1-.9,2.1,2.9,2.9,0,0,1-4.7-.7,5.2,5.2,0,0,0-4.9-2.9h-.3a5.5,5.5,0,0,0-5.5,5.5V67a5.5,5.5,0,0,0,5.5,5.5h.3a5.2,5.2,0,0,0,4.9-2.9,2.9,2.9,0,0,1,2.6-1.6,2.8,2.8,0,0,1,3,2.8v.3a2.4,2.4,0,0,1-.2,1.4Zm24.7-18.6a3.1,3.1,0,0,0,2.2-.9,2.9,2.9,0,0,0,.9-2.1,2.7,2.7,0,0,0-2-2.8l-1.1-.4a15.7,15.7,0,0,0-4.3-.9,12.6,12.6,0,0,0-7.3,2.3,12.2,12.2,0,0,0-5.4,10.5V75.3a3,3,0,0,0,2.9,3h.1a3.1,3.1,0,0,0,3.1-3.1V59.7a6.4,6.4,0,0,1,6.1-6.8,5.8,5.8,0,0,1,2.9.5l1.1.4,1,.2h-.2ZM387.7,67h0V58.3a11.1,11.1,0,0,0-3.4-8.2,11.3,11.3,0,0,0-8.1-3.4H376a10.7,10.7,0,0,0-8.1,3.4,11.3,11.3,0,0,0-3.4,8.2v8.8A11.5,11.5,0,0,0,376,78.6h.3A11.5,11.5,0,0,0,387.7,67Zm-5.8.1h-.1a5.6,5.6,0,0,1-5.5,5.5H376a5.6,5.6,0,0,1-5.5-5.5V58.3a5.9,5.9,0,0,1,1.6-4,4.8,4.8,0,0,1,3.9-1.6h.3a5.5,5.5,0,0,1,3.9,1.6,5,5,0,0,1,1.6,4Zm47.5-16.3a2.2,2.2,0,0,0,.1-.8,3.1,3.1,0,0,0-3-3,2.8,2.8,0,0,0-2.9,2.2l-4.8,15.6L414,49.4a3,3,0,0,0-5.8,0L403.3,65l-4.8-15.6a2.8,2.8,0,0,0-3-2.2,3.1,3.1,0,0,0-3,3,2.2,2.2,0,0,0,.1.8l7.8,25.4a2.8,2.8,0,0,0,2.9,2.2,3,3,0,0,0,3-2.2l4.8-15,4.9,15a2.9,2.9,0,0,0,3,2.2,2.8,2.8,0,0,0,2.9-2.2L429.7,51Zm28.2,16.1V37.7h-3a3.1,3.1,0,0,0-3,3V48c0,.3-.1.3-.3.2a11.8,11.8,0,0,0-5.2-1.3h-.3a11.5,11.5,0,0,0-11.5,11.5h0v8.5a11.5,11.5,0,0,0,11.4,11.5h.3a11.5,11.5,0,0,0,11.6-11.5Zm-5.9,0a5.2,5.2,0,0,1-1.7,3.9h.1a4.8,4.8,0,0,1-3.9,1.6h-.3a5.5,5.5,0,0,1-3.9-1.6,4.8,4.8,0,0,1-1.6-3.9V58.4a5.5,5.5,0,0,1,1.6-3.9,4.8,4.8,0,0,1,3.9-1.6h.3a5.5,5.5,0,0,1,3.9,1.6,4.8,4.8,0,0,1,1.6,3.9Z"/></svg>
